<svg width="20" height="21" viewBox="0 0 20 21" fill="none" xmlns="http://www.w3.org/2000/svg">
<path d="M4.99996 8.83342V7.16675C4.99996 4.40841 5.83329 2.16675 9.99996 2.16675C14.1666 2.16675 15 4.40841 15 7.16675V8.83342M12.0833 13.8334C12.0833 14.984 11.1506 15.9167 9.99996 15.9167C8.84937 15.9167 7.91663 14.984 7.91663 13.8334C7.91663 12.6828 8.84937 11.7501 9.99996 11.7501C11.1506 11.7501 12.0833 12.6828 12.0833 13.8334ZM14.1666 18.8334H5.83329C2.49996 18.8334 1.66663 18.0001 1.66663 14.6667V13.0001C1.66663 9.66675 2.49996 8.83342 5.83329 8.83342H14.1666C17.5 8.83342 18.3333 9.66675 18.3333 13.0001V14.6667C18.3333 18.0001 17.5 18.8334 14.1666 18.8334Z" stroke="#161718" stroke-opacity="0.7" stroke-width="1.5" stroke-linecap="round" stroke-linejoin="round"/>
</svg>
